<?xml version="1.0" encoding="iso-8859-1"?>
<!-- Generator: Adobe Illustrator 17.1.0, SVG Export Plug-In . SVG Version: 6.00 Build 0)  -->
<!DOCTYPE svg PUBLIC "-//W3C//DTD SVG 1.1//EN" "http://www.w3.org/Graphics/SVG/1.1/DTD/svg11.dtd">
<svg version="1.1" id="Capa_1" xmlns="http://www.w3.org/2000/svg" xmlns:xlink="http://www.w3.org/1999/xlink" x="0px" y="0px"
	 viewBox="0 0 465 465" style="enable-background:new 0 0 465 465;" xml:space="preserve">
<g>
	<path d="M289,354.356c0,4.411,3.589,8,8,8s8-3.589,8-8s-3.589-8-8-8S289,349.945,289,354.356z"/>
	<path d="M319,324.356c0,4.411,3.589,8,8,8s8-3.589,8-8s-3.589-8-8-8S319,319.945,319,324.356z"/>
	<path d="M367.5,211.668c-4.143,0-7.5,3.357-7.5,7.5v176.487c0,4.143,3.357,7.5,7.5,7.5s7.5-3.357,7.5-7.5V219.168
		C375,215.025,371.643,211.668,367.5,211.668z"/>
	<path d="M194.985,74.254c13.6-5.034,27.904-7.586,42.515-7.586c67.547,0,122.5,54.953,122.5,122.5c0,4.143,3.357,7.5,7.5,7.5
		s7.5-3.357,7.5-7.5c0-53.336-30.526-99.676-75.024-122.469C366.384,68.023,420,122.449,420,189.168v211.294
		c0,4.143,3.357,7.5,7.5,7.5s7.5-3.357,7.5-7.5V189.168c0-75.817-61.683-137.5-137.5-137.5h-60c-16.394,0-32.449,2.866-47.721,8.518
		c-3.885,1.438-5.868,5.753-4.431,9.638C186.786,73.708,191.099,75.688,194.985,74.254z"/>
	<path d="M57.525,284.75v73.241c0,4.143,3.358,7.5,7.5,7.5s7.5-3.357,7.5-7.5v-76.92c0-2.396-1.146-4.649-3.083-6.061
		c-14.093-10.272-22.507-26.79-22.507-44.186V100.128c0-4.432,3.605-8.037,8.037-8.037s8.037,3.605,8.037,8.037v58.49
		c0,4.143,3.358,7.5,7.5,7.5s7.5-3.357,7.5-7.5v-58.49V78.193c0-4.431,3.605-8.036,8.037-8.036c4.432,0,8.037,3.605,8.037,8.036
		v80.425c0,4.143,3.358,7.5,7.5,7.5s7.5-3.357,7.5-7.5V78.193V56.26c0-4.432,3.605-8.037,8.037-8.037s8.037,3.605,8.037,8.037
		v21.934v80.609c0,4.143,3.358,7.5,7.5,7.5s7.5-3.357,7.5-7.5V78.193c0-4.431,3.605-8.036,8.037-8.036
		c4.431,0,8.037,3.605,8.037,8.036v107.596c-2.741,6.583-4.892,13.427-6.417,20.474c-31.656,3.155-56.461,29.946-56.461,62.422
		c0,4.143,3.358,7.5,7.5,7.5s7.5-3.357,7.5-7.5c0-26.319,21.411-47.732,47.728-47.732c3.674,0,6.808-2.662,7.401-6.288
		c3.532-21.56,13.64-41.197,29.231-56.788c3.133-3.134,8.232-3.136,11.366,0c3.133,3.133,3.133,8.232,0,11.365
		c-16.711,16.711-25.914,38.929-25.913,62.562c0,18.453-8.479,41.147-32.273,49.504c-3.004,1.055-5.015,3.892-5.015,7.076v69.608
		c0,4.143,3.358,7.5,7.5,7.5s7.5-3.357,7.5-7.5V293.46c27.407-12.292,37.289-40.395,37.289-61.657
		c0-19.626,7.642-38.077,21.52-51.955c8.981-8.982,8.981-23.597,0-32.579c-8.981-8.98-23.596-8.98-32.579,0
		c-3.938,3.938-7.563,8.108-10.875,12.474V78.193c0-12.702-10.334-23.036-23.037-23.036c-2.825,0-5.534,0.512-8.037,1.446V56.26
		c0-12.703-10.334-23.037-23.037-23.037S94.083,43.557,94.083,56.26v0.344c-2.503-0.935-5.212-1.446-8.037-1.446
		c-12.703,0-23.037,10.334-23.037,23.036v0.344c-2.503-0.935-5.212-1.446-8.037-1.446c-12.703,0-23.037,10.334-23.037,23.037
		v130.697C31.935,251.697,41.435,271.574,57.525,284.75z"/>
	<path d="M457.5,416.777H208.984c-27.57-26.732-63.766-41.413-102.284-41.413c-39.573,0-76.697,15.498-104.532,43.639
		c-2.913,2.945-2.887,7.693,0.058,10.606c1.462,1.446,3.368,2.168,5.274,2.168c1.933,0,3.865-0.743,5.332-2.226
		c24.997-25.271,58.333-39.188,93.868-39.188c35.536,0,68.872,13.917,93.868,39.188c1.409,1.424,3.329,2.226,5.332,2.226h251.6
		c4.143,0,7.5-3.357,7.5-7.5S461.643,416.777,457.5,416.777z"/>
</g>
<g>
</g>
<g>
</g>
<g>
</g>
<g>
</g>
<g>
</g>
<g>
</g>
<g>
</g>
<g>
</g>
<g>
</g>
<g>
</g>
<g>
</g>
<g>
</g>
<g>
</g>
<g>
</g>
<g>
</g>
</svg>
