<?xml version="1.0" standalone="no"?>
<!DOCTYPE svg PUBLIC "-//W3C//DTD SVG 20010904//EN"
 "http://www.w3.org/TR/2001/REC-SVG-20010904/DTD/svg10.dtd">
<svg version="1.0" xmlns="http://www.w3.org/2000/svg"
 width="512.000000pt" height="512.000000pt" viewBox="0 0 512.000000 512.000000"
 preserveAspectRatio="xMidYMid meet">
<metadata>
Created by potrace 1.11, written by Peter Selinger 2001-2013
</metadata>
<g transform="translate(0.000000,512.000000) scale(0.100000,-0.100000)"
fill="#000000" stroke="none">
<path d="M1243 4779 c-213 -21 -421 -102 -560 -219 -144 -121 -258 -294 -303
-462 -53 -195 -53 -208 -58 -1423 -4 -1412 2 -1537 87 -1748 106 -267 360
-488 638 -557 167 -42 200 -43 1378 -47 1406 -5 1537 0 1748 77 227 83 447
298 538 525 85 214 91 336 86 1750 -3 984 -5 1144 -20 1238 -34 225 -89 363
-202 504 -174 218 -399 331 -716 362 -139 13 -2474 13 -2616 0z m1152 -614
c316 -66 595 -265 763 -543 48 -78 108 -226 132 -322 31 -122 38 -345 16 -465
-35 -183 -101 -339 -203 -483 -29 -40 -53 -76 -53 -80 0 -4 196 -203 435 -442
239 -239 435 -439 435 -445 0 -13 -172 -185 -185 -185 -5 0 -208 198 -450 440
-242 242 -443 440 -447 440 -3 0 -38 -20 -77 -43 -86 -54 -250 -120 -351 -142
-41 -9 -132 -19 -201 -22 -453 -20 -880 233 -1088 645 -132 262 -153 621 -51
899 147 401 502 695 913 758 114 18 303 13 412 -10z"/>
<path d="M1982 4029 c-116 -20 -287 -91 -392 -162 -247 -167 -411 -445 -439
-745 -40 -426 180 -818 564 -1007 168 -83 244 -100 450 -99 182 1 249 12 386
68 248 100 469 327 563 580 136 363 54 778 -208 1054 -144 152 -285 236 -491
294 -81 23 -344 33 -433 17z"/>
</g>
</svg>
